HIERARCHY
ROOT Hips
{
	OFFSET -3.958830 18.904000 13.208200
	CHANNELS 6 Xposition Yposition Zposition Zrotation Yrotation Xrotation 
	JOINT LHipJoint
	{
		OFFSET 0.000000 0.000000 0.000000
		CHANNELS 3 Zrotation Yrotation Xrotation
		JOINT LeftUpLeg
		{
			OFFSET 1.800000 -1.400000 0.085000
			CHANNELS 3 Zrotation Yrotation Xrotation
			JOINT LeftLeg
			{
				OFFSET 2.215000 -6.000000 0.000000
				CHANNELS 3 Zrotation Yrotation Xrotation
				JOINT LeftFoot
				{
					OFFSET 2.500000 -6.900000 0.000000
					CHANNELS 3 Zrotation Yrotation Xrotation
					JOINT LeftToeBase
					{
						OFFSET 0.200000 -0.500000 1.950000
						CHANNELS 3 Zrotation Yrotation Xrotation
						End Site
						{
							OFFSET 0.000000 0.000000 0.000000
						}
					}
				}
			}
		}
	}
	JOINT RHipJoint
	{
		OFFSET 0.000000 0.000000 0.000000
		CHANNELS 3 Zrotation Yrotation Xrotation
		JOINT RightUpLeg
		{
			OFFSET -1.800000 -1.400000 0.085000
			CHANNELS 3 Zrotation Yrotation Xrotation
			JOINT RightLeg
			{
				OFFSET -2.215000 -6.000000 0.000000
				CHANNELS 3 Zrotation Yrotation Xrotation
				JOINT RightFoot
				{
					OFFSET -2.500000 -6.900000 0.000000
					CHANNELS 3 Zrotation Yrotation Xrotation
					JOINT RightToeBase
					{
						OFFSET -0.200000 -0.500000 1.950000
						CHANNELS 3 Zrotation Yrotation Xrotation
						End Site
						{
							OFFSET 0.000000 0.000000 0.000000
						}
					}
				}
			}
		}
	}
	JOINT LowerBack
	{
		OFFSET 0.000000 0.000000 0.000000
		CHANNELS 3 Zrotation Yrotation Xrotation
		JOINT Spine
		{
			OFFSET -0.087000 1.940000 -0.288900
			CHANNELS 3 Zrotation Yrotation Xrotation
			JOINT Spine1
			{
				OFFSET 0.000000 1.950000 0.060000
				CHANNELS 3 Zrotation Yrotation Xrotation
				JOINT Neck
				{
					OFFSET 0.000000 0.000000 0.000000
					CHANNELS 3 Zrotation Yrotation Xrotation
					JOINT Neck1
					{
						OFFSET 0.000000 1.600000 0.340000
						CHANNELS 3 Zrotation Yrotation Xrotation
						JOINT Head
						{
							OFFSET 0.000000 1.667000 -0.240000
							CHANNELS 3 Zrotation Yrotation Xrotation
							End Site
							{
								OFFSET 0.000000 0.000000 0.000000
							}
						}
					}
				}
				JOINT LeftShoulder
				{
					OFFSET 0.000000 0.000000 0.000000
					CHANNELS 3 Zrotation Yrotation Xrotation
					JOINT LeftArm
					{
						OFFSET 2.700000 1.550000 -0.730000
						CHANNELS 3 Zrotation Yrotation Xrotation
						JOINT LeftForeArm
						{
							OFFSET 5.450000 0.000000 0.000000
							CHANNELS 3 Zrotation Yrotation Xrotation
							JOINT LeftHand
							{
								OFFSET 3.450000 0.000000 0.000000
								CHANNELS 3 Zrotation Yrotation Xrotation
								JOINT LeftHandIndex1
								{
									OFFSET 0.750000 0.000000 0.000000
									CHANNELS 3 Zrotation Yrotation Xrotation
									End Site
									{
										OFFSET 0.000000 0.000000 0.000000
									}
								}
							}
						}
					}
				}
				JOINT RightShoulder
				{
					OFFSET 0.000000 0.000000 0.000000
					CHANNELS 3 Zrotation Yrotation Xrotation
					JOINT RightArm
					{
						OFFSET -2.700000 1.550000 -0.730000
						CHANNELS 3 Zrotation Yrotation Xrotation
						JOINT RightForeArm
						{
							OFFSET -5.450000 0.000000 0.000000
							CHANNELS 3 Zrotation Yrotation Xrotation
							JOINT RightHand
							{
								OFFSET -3.450000 0.000000 0.000000
								CHANNELS 3 Zrotation Yrotation Xrotation
								JOINT RightHandIndex1
								{
									OFFSET -0.750000 0.000000 0.000000
									CHANNELS 3 Zrotation Yrotation Xrotation
									End Site
									{
										OFFSET 0.000000 0.000000 0.000000
									}
								}
							}
						}
					}
				}
			}
		}
	}
}
MOTION
Frames: 8
Frame Time: 0.016667
0.944850 17.207460 -1.313690 -3.178040 8.302247 10.214933 -15.177440 12.563356 2.779522 15.794042 -1.688253 -14.741960 -3.167625 3.409774 0.720597 -0.269977 3.811385 3.394334 0.016950 -0.002490 -0.166210 18.279753 -10.958151 2.205647 -17.634302 0.455062 -10.277662 4.861024 -4.312752 7.371479 0.037810 -4.035568 3.001142 0.213920 0.563360 0.157090 -3.649343 -0.635070 -6.446249 2.134585 1.671916 -0.602172 -0.457424 1.426574 2.910210 0.457939 -1.864800 -4.800858 -1.949404 -0.589349 17.450655 -0.840560 -1.494510 -2.874090 -23.714337 1.649026 0.442457 -56.711675 0.094206 -4.058829 -3.198823 -8.593200 -0.868506 -4.292632 2.922371 -0.168040 0.436730 -0.324070 0.175850 23.055788 1.214324 1.396126 57.109451 1.711070 -5.145171 8.768391 14.612589 -0.830722 2.403807 -1.482920 -0.203720 0.216600 0.108010 0.079930 
0.943460 17.209290 -1.317140 -3.216234 8.589338 10.284055 -15.174831 12.557280 2.774930 15.734499 -1.714996 -14.995685 -2.990263 3.371043 0.767954 -0.276280 3.775654 3.405570 0.019130 0.001410 -0.167950 18.282787 -10.965788 2.213374 -17.502983 0.461082 -10.224691 4.830596 -4.289077 7.278819 0.036397 -4.033909 3.003753 0.216200 0.564580 0.156660 -3.660124 -0.610364 -6.447185 2.126715 1.739525 -0.581270 -0.592651 1.496236 2.950009 0.534337 -1.756430 -4.870061 -1.740818 -0.598936 17.327711 -0.676860 -1.535120 -2.908210 -23.614393 1.518186 0.464750 -56.684975 -0.003481 -4.041329 -3.149817 -8.557590 -0.867696 -4.291082 2.926576 -0.169140 0.436490 -0.324460 0.178490 22.804291 1.261473 1.476618 57.400297 1.653433 -5.226396 8.915598 14.844315 -0.825916 2.401240 -1.487642 -0.203130 0.216600 0.106080 0.081890 
0.944020 17.212750 -1.320820 -3.205771 9.170398 10.324379 -15.168635 12.536021 2.758584 15.593400 -1.752994 -15.278839 -2.672116 3.301754 0.809885 -0.283506 3.721492 3.424238 0.011730 -0.010010 -0.169300 18.288127 -10.987098 2.235877 -17.510414 0.456257 -10.020263 4.883695 -4.294390 7.061781 0.032350 -4.062844 2.994932 0.207860 0.564070 0.160310 -3.682611 -0.528443 -6.453264 2.116208 2.001459 -0.571554 -0.933236 1.762706 2.950915 0.787838 -1.421137 -4.960506 -1.154423 -0.955368 17.369603 -0.808920 -1.686930 -2.661280 -23.857088 1.206841 0.440514 -56.153326 -0.203645 -3.986449 -3.026866 -8.526797 -0.862779 -4.292441 2.932171 -0.171060 0.439240 -0.326140 0.175440 22.533653 1.332078 1.698274 57.735533 1.250863 -5.439870 9.248302 15.175090 -0.805376 2.398561 -1.492663 -0.202120 0.209320 0.108250 0.080980 
0.945410 17.218560 -1.322360 -3.247026 9.868737 10.372827 -15.161826 12.504416 2.758472 15.449650 -1.805194 -15.521402 -2.373411 3.202119 0.613203 -0.285984 3.666888 3.440929 0.011650 -0.012810 -0.162030 18.295868 -11.006247 2.249622 -17.417403 0.444530 -9.784406 4.929435 -4.307602 6.925775 0.023310 -4.085754 2.987111 0.201840 0.553420 0.166040 -3.710055 -0.446720 -6.464100 2.226487 2.192005 -0.557362 -1.313405 1.951828 2.983084 1.029667 -1.129755 -5.070117 -0.632420 -1.343930 17.363355 -1.061700 -1.783900 -2.634650 -23.907784 0.932539 0.441109 -55.697674 -0.362929 -3.915129 -3.210784 -8.274316 -0.843091 -4.290229 2.938287 -0.170200 0.437180 -0.319950 0.171370 22.085318 1.382389 1.897589 58.349931 0.949069 -5.680748 9.245958 15.548625 -0.811434 2.397809 -1.496425 -0.195680 0.198290 0.105100 0.078140 
0.948820 17.228420 -1.323170 -3.289745 10.629916 10.441281 -15.155662 12.454625 2.762163 15.331832 -1.855303 -15.764211 -2.145418 3.102247 0.317502 -0.282929 3.621092 3.454206 0.011470 -0.012870 -0.158350 18.306402 -11.020148 2.264160 -17.287456 0.436555 -9.432606 4.948992 -4.305438 6.676113 0.011647 -4.119509 2.975868 0.197450 0.547180 0.175490 -3.739584 -0.345068 -6.470747 2.302527 2.460645 -0.602961 -1.550681 2.200451 2.963000 1.273146 -0.764640 -5.101148 0.007207 -1.536931 17.324005 -1.190490 -1.738110 -2.530380 -24.060023 0.849918 0.402704 -55.507963 -0.417898 -3.976402 -3.002455 -8.450321 -0.848982 -4.292293 2.947633 -0.175370 0.439450 -0.315060 0.168800 21.751013 1.213721 1.974207 58.816312 0.724418 -5.830427 9.053463 15.796428 -0.832991 2.398655 -1.502481 -0.186300 0.185270 0.102840 0.078400 
0.948850 17.234660 -1.324340 -3.324206 11.332874 10.554203 -15.149992 12.391424 2.776508 15.353712 -1.897139 -16.073962 -2.162078 3.051586 0.058231 -0.282988 3.605560 3.457788 0.004940 -0.020570 -0.160780 18.317945 -11.023126 2.278632 -17.167389 0.443766 -9.132964 5.026097 -4.304307 6.403943 0.006799 -4.157830 2.965265 0.193620 0.548710 0.180920 -3.767784 -0.242263 -6.482081 2.371951 2.747305 -0.677085 -1.700864 2.459207 2.992177 1.487949 -0.398417 -5.180664 0.656301 -1.761980 17.212462 -1.377790 -1.718920 -2.225350 -24.099608 0.676394 0.401727 -55.408313 -0.515337 -3.965480 -2.925907 -8.367921 -0.847701 -4.302392 2.954573 -0.183550 0.447770 -0.319580 0.165890 21.364948 1.146674 2.099336 59.258385 0.514225 -6.024212 8.784999 16.312052 -0.864029 2.392205 -1.511681 -0.184610 0.175950 0.105160 0.077550 
0.945650 17.242680 -1.328510 -3.369710 11.940007 10.665892 -15.145758 12.326153 2.796081 15.491161 -1.932281 -16.416315 -2.239229 3.016653 -0.167019 -0.287344 3.598692 3.454542 0.014080 -0.009650 -0.153650 18.328810 -11.022413 2.288514 -17.026233 0.456933 -8.889588 5.042577 -4.281929 6.147131 -0.003407 -4.180424 2.958071 0.201270 0.544710 0.185590 -3.791049 -0.144585 -6.493378 2.432437 3.115749 -0.692804 -1.679220 2.796269 2.965488 1.637280 -0.028023 -5.207336 1.328579 -2.045215 16.967263 -1.335440 -1.855360 -2.429770 -24.366128 0.453469 0.344939 -55.095107 -0.683898 -3.860999 -2.989823 -8.009445 -0.843650 -4.307534 2.959229 -0.185940 0.449190 -0.316790 0.165950 21.340235 1.144665 2.197878 59.274212 0.185639 -6.121807 8.689673 16.248806 -0.892791 2.386676 -1.517500 -0.180200 0.173450 0.101850 0.076390 
0.943490 17.245680 -1.327830 -3.369216 12.616828 10.799126 -15.142144 12.254503 2.815170 15.549286 -1.972478 -16.709825 -2.343766 2.974391 -0.453039 -0.296693 3.596633 3.451590 0.016840 -0.006080 -0.150190 18.339797 -11.022098 2.298993 -16.950085 0.467122 -8.603388 5.112174 -4.282239 5.896892 -0.014053 -4.216276 2.943858 0.207090 0.546190 0.190200 -3.813400 -0.035568 -6.500974 2.412700 3.446759 -0.760679 -1.541457 3.073916 3.006024 1.830469 0.529629 -5.343822 2.323289 -2.201353 16.521150 -1.155700 -1.853720 -2.669550 -24.252407 0.215161 0.416785 -55.271565 -0.691366 -3.901053 -3.082581 -7.994220 -0.854968 -4.315860 2.961583 -0.185560 0.453300 -0.316860 0.163400 20.870674 1.026291 2.286193 59.577935 0.011078 -6.241949 8.575168 16.552256 -0.911963 2.376066 -1.522173 -0.181730 0.173380 0.104390 0.073380 
